<svg xmlns="http://www.w3.org/2000/svg" width="1200" height="610" viewBox="0 0 1200 610">
<rect width="100%" height="100%" fill="white" />
<text x="24" y="30" font-family="Arial" font-size="18" font-weight="700">Top visible buy-before / sell-after roundtrips</text>
<text x="24" y="50" font-family="Arial" font-size="12" fill="#555">Uses actual visible entry asks and exit bids at sampled book states.</text>
<text x="24" y="93" font-family="Arial" font-size="12">Q4 8:10 SAS +1</text>
<rect x="310" y="78" width="850.0" height="18" fill="#4c78a8" />
<text x="1166.0" y="92" font-family="Arial" font-size="12">$26,649</text>
<text x="24" y="119" font-family="Arial" font-size="12">Q2 1:15 NYK +3</text>
<rect x="310" y="104" width="511.9" height="18" fill="#4c78a8" />
<text x="827.9" y="118" font-family="Arial" font-size="12">$16,050</text>
<text x="24" y="145" font-family="Arial" font-size="12">Q3 9:34 SAS +1</text>
<rect x="310" y="130" width="330.7" height="18" fill="#4c78a8" />
<text x="646.7" y="144" font-family="Arial" font-size="12">$10,368</text>
<text x="24" y="171" font-family="Arial" font-size="12">Q2 0:41 NYK +3</text>
<rect x="310" y="156" width="260.1" height="18" fill="#4c78a8" />
<text x="576.1" y="170" font-family="Arial" font-size="12">$8,153</text>
<text x="24" y="197" font-family="Arial" font-size="12">Q4 1:53 SAS +3</text>
<rect x="310" y="182" width="252.4" height="18" fill="#4c78a8" />
<text x="568.4" y="196" font-family="Arial" font-size="12">$7,913</text>
<text x="24" y="223" font-family="Arial" font-size="12">Q3 11:33 SAS +2</text>
<rect x="310" y="208" width="220.5" height="18" fill="#4c78a8" />
<text x="536.5" y="222" font-family="Arial" font-size="12">$6,912</text>
<text x="24" y="249" font-family="Arial" font-size="12">Q2 9:12 NYK +3</text>
<rect x="310" y="234" width="205.2" height="18" fill="#4c78a8" />
<text x="521.2" y="248" font-family="Arial" font-size="12">$6,434</text>
<text x="24" y="275" font-family="Arial" font-size="12">Q4 10:56 SAS +1</text>
<rect x="310" y="260" width="185.5" height="18" fill="#4c78a8" />
<text x="501.5" y="274" font-family="Arial" font-size="12">$5,816</text>
<text x="24" y="301" font-family="Arial" font-size="12">Q3 10:16 NYK +2</text>
<rect x="310" y="286" width="175.8" height="18" fill="#4c78a8" />
<text x="491.8" y="300" font-family="Arial" font-size="12">$5,512</text>
<text x="24" y="327" font-family="Arial" font-size="12">Q3 9:34 SAS +1</text>
<rect x="310" y="312" width="149.3" height="18" fill="#4c78a8" />
<text x="465.3" y="326" font-family="Arial" font-size="12">$4,679</text>
<text x="24" y="353" font-family="Arial" font-size="12">Q3 3:19 SAS +2</text>
<rect x="310" y="338" width="142.9" height="18" fill="#4c78a8" />
<text x="458.9" y="352" font-family="Arial" font-size="12">$4,480</text>
<text x="24" y="379" font-family="Arial" font-size="12">Q2 3:58 SAS +3</text>
<rect x="310" y="364" width="128.7" height="18" fill="#4c78a8" />
<text x="444.7" y="378" font-family="Arial" font-size="12">$4,034</text>
<text x="24" y="405" font-family="Arial" font-size="12">Q4 7:31 NYK +2</text>
<rect x="310" y="390" width="124.0" height="18" fill="#4c78a8" />
<text x="440.0" y="404" font-family="Arial" font-size="12">$3,889</text>
<text x="24" y="431" font-family="Arial" font-size="12">Q3 6:41 NYK +3</text>
<rect x="310" y="416" width="76.3" height="18" fill="#4c78a8" />
<text x="392.3" y="430" font-family="Arial" font-size="12">$2,392</text>
<text x="24" y="457" font-family="Arial" font-size="12">Q4 0:09 NYK +3</text>
<rect x="310" y="442" width="68.0" height="18" fill="#4c78a8" />
<text x="384.0" y="456" font-family="Arial" font-size="12">$2,133</text>
<text x="24" y="483" font-family="Arial" font-size="12">Q2 4:46 NYK +3</text>
<rect x="310" y="468" width="66.5" height="18" fill="#4c78a8" />
<text x="382.5" y="482" font-family="Arial" font-size="12">$2,084</text>
<text x="24" y="509" font-family="Arial" font-size="12">Q2 9:41 NYK +1</text>
<rect x="310" y="494" width="65.3" height="18" fill="#4c78a8" />
<text x="381.3" y="508" font-family="Arial" font-size="12">$2,048</text>
<text x="24" y="535" font-family="Arial" font-size="12">Q4 0:06 SAS +1</text>
<rect x="310" y="520" width="65.3" height="18" fill="#4c78a8" />
<text x="381.3" y="534" font-family="Arial" font-size="12">$2,047</text>
<text x="24" y="561" font-family="Arial" font-size="12">Q4 0:59 NYK +1</text>
<rect x="310" y="546" width="63.2" height="18" fill="#4c78a8" />
<text x="379.2" y="560" font-family="Arial" font-size="12">$1,981</text>
<text x="24" y="587" font-family="Arial" font-size="12">Q3 7:11 NYK +2</text>
<rect x="310" y="572" width="61.1" height="18" fill="#4c78a8" />
<text x="377.1" y="586" font-family="Arial" font-size="12">$1,916</text>
</svg>